<svg id="Capa_1" enable-background="new 0 0 512 512" height="512" viewBox="0 0 512 512" width="512" xmlns="http://www.w3.org/2000/svg"><g><path d="m49.831 460.557-1.662-44.558c-.325-8.703-3.101-17.138-8.01-24.332l-29.754-43.604c-13.55-19.857-13.892-45.897-.868-66.103l51.289-79.661 33.5 115.437-13.456 143.625-26.633 2.99c-2.292.257-4.32-1.489-4.406-3.794z" fill="#f1d0a5"/><path d="m462.169 460.557 1.662-44.558c.325-8.703 3.101-17.138 8.01-24.332l29.754-43.604c13.55-19.857 13.892-45.897.868-66.103l-48.727-75.693-36.062 111.469 13.455 143.625 26.633 2.99c2.293.257 4.321-1.489 4.407-3.794z" fill="#f1d0a5"/><path d="m502.464 281.96-48.727-75.693-6.598 25.22 32.533 50.473c13.024 20.206 12.682 46.246-.868 66.103l-29.754 43.604c-4.909 7.194-7.686 15.629-8.01 24.332l-1.726 46.28 18.451 2.071c2.293.257 4.32-1.489 4.406-3.794l1.662-44.558c.325-8.703 3.101-17.138 8.01-24.332l29.754-43.604c13.549-19.856 13.891-45.896.867-66.102z" fill="#f1b986"/><path d="m431.099 328.144h-350.198c-12.995 0-23.529-10.534-23.529-23.529v-233.462c0-12.995 10.534-23.529 23.529-23.529h350.199c12.995 0 23.529 10.534 23.529 23.529v233.461c0 12.996-10.535 23.53-23.53 23.53z" fill="#365e7d"/><path d="m431.099 47.624h-15.977c12.995 0 23.529 10.535 23.529 23.529v233.461c0 12.995-10.534 23.529-23.529 23.529h15.977c12.995 0 23.53-10.534 23.53-23.529v-233.461c0-12.994-10.535-23.529-23.53-23.529z" fill="#2b4d66"/><path d="m420.871 80.102h-320.92c-.705 0-1.28.607-1.28 1.353v212.858c0 .746.574 1.353 1.28 1.353h320.92c.706 0 1.28-.607 1.28-1.353v-212.858c0-.746-.574-1.353-1.28-1.353z" fill="#d3effb"/><path d="m420.871 80.102h-17.093c.706 0 1.281.607 1.281 1.353v212.858c0 .746-.574 1.353-1.281 1.353h17.093c.706 0 1.281-.607 1.281-1.353v-212.858c-.001-.746-.575-1.353-1.281-1.353z" fill="#b1e4f9"/><g><path d="m78.224 201.19c-4.268 0-7.726-3.459-7.726-7.726v-11.159c0-4.268 3.459-7.726 7.726-7.726 4.268 0 7.726 3.459 7.726 7.726v11.159c0 4.267-3.459 7.726-7.726 7.726z" fill="#2b4d66"/></g><g><g><g><path d="m166.047 226.972h-33.949c-4.268 0-7.726-3.459-7.726-7.726s3.459-7.726 7.726-7.726h33.949c4.268 0 7.726 3.459 7.726 7.726s-3.459 7.726-7.726 7.726z" fill="#365e7d"/></g><g><path d="m196.952 262.045h-64.854c-4.268 0-7.726-3.459-7.726-7.726s3.459-7.726 7.726-7.726h64.854c4.268 0 7.726 3.459 7.726 7.726s-3.458 7.726-7.726 7.726z" fill="#365e7d"/></g></g><g><g><path d="m399.026 226.972h-33.949c-4.268 0-7.726-3.459-7.726-7.726s3.459-7.726 7.726-7.726h33.949c4.268 0 7.726 3.459 7.726 7.726s-3.459 7.726-7.726 7.726z" fill="#365e7d"/></g><g><path d="m399.026 262.045h-64.854c-4.268 0-7.726-3.459-7.726-7.726s3.459-7.726 7.726-7.726h64.854c4.268 0 7.726 3.459 7.726 7.726s-3.459 7.726-7.726 7.726z" fill="#365e7d"/></g></g></g><path d="m116.621 454.021.752-32.329c.133-5.71 1.159-11.363 3.042-16.755 5.289-15.146 2.294-31.954-7.902-44.34-2.146-2.607-2.482-6.261-.846-9.216l43.331-78.288c3.514-6.349 2.352-14.263-2.838-19.335-6.498-6.349-16.956-6.077-23.115.602l-72.078 78.164 4.742 54.473 19.161 74.365 32.212-3.488c1.979-.216 3.493-1.863 3.539-3.853z" fill="#f1d0a5"/><path d="m154.997 273.092c3.514-6.349 2.352-14.263-2.838-19.334-5.855-5.721-14.914-6.048-21.157-1.175.465.364.918.753 1.35 1.175 5.19 5.071 6.352 12.986 2.838 19.334l-43.331 78.288c-1.635 2.955-1.3 6.609.847 9.216 10.196 12.387 13.191 29.194 7.902 44.341-1.883 5.392-2.909 11.046-3.042 16.755l-.555 23.88c-.159 6.825-5.35 12.475-12.137 13.21l-2.398.26c-1.13.122-1.888 1.218-1.605 2.319l32.212-3.488c1.979-.214 3.492-1.862 3.538-3.851l.729-31.359c.14-6.013 1.061-12.008 3.05-17.684 5.31-15.157 2.318-31.985-7.887-44.383-2.146-2.607-2.482-6.261-.847-9.216z" fill="#f1b986"/><path d="m395.379 454.021-.752-32.329c-.133-5.71-1.159-11.363-3.042-16.755-5.289-15.146-2.294-31.954 7.902-44.34 2.146-2.607 2.482-6.261.846-9.216l-43.331-78.288c-3.514-6.349-2.352-14.263 2.838-19.335 6.498-6.349 16.956-6.077 23.115.602l72.078 78.164-4.742 54.473-19.161 74.365-32.212-3.488c-1.979-.216-3.493-1.863-3.539-3.853z" fill="#f1d0a5"/><g><g><path d="m174.595 139.474h-40.585c-4.268 0-7.726-3.459-7.726-7.726v-29.539c0-4.268 3.459-7.726 7.726-7.726h40.586c4.268 0 7.726 3.459 7.726 7.726v29.539c-.001 4.268-3.459 7.726-7.727 7.726zm-32.859-15.452h25.133v-14.087h-25.133z" fill="#e27d47"/></g><g><path d="m194.369 177.673h-60.359c-4.268 0-7.726-3.459-7.726-7.726v-38.198c0-4.268 3.459-7.726 7.726-7.726h60.359c4.268 0 7.726 3.459 7.726 7.726v38.198c0 4.267-3.459 7.726-7.726 7.726zm-52.633-15.453h44.906v-22.745h-44.906z" fill="#e27d47"/></g></g><g><path d="m277.883 266.717c-.985 0-1.986-.189-2.954-.59l-34.95-14.474c-3.942-1.633-5.814-6.153-4.182-10.096 1.633-3.941 6.149-5.815 10.096-4.182l34.95 14.474c3.942 1.633 5.814 6.153 4.182 10.096-1.233 2.975-4.11 4.772-7.142 4.772z" fill="#365e7d"/></g><path d="m268.696 244.232-13.037 13.037c-5.003 5.003-13.114 5.003-18.117 0l-8.243-8.243c-5.003-5.003-5.003-13.114 0-18.117l13.037-13.037z" fill="#ffc250"/><path d="m245.281 216.653h11.992v37.278h-11.992z" fill="#ebb044" transform="matrix(.707 -.707 .707 .707 -92.779 246.595)"/><path d="m268.696 244.232 33.914-16.797-43.476-43.477-16.797 33.915z" fill="#e27d47"/><path d="m252.596 197.159 36.814 36.814 13.2-6.538-43.476-43.477z" fill="#dd544f"/><g><path d="m305.577 238.127c-1.977 0-3.955-.755-5.464-2.263l-49.409-49.409c-3.017-3.018-3.017-7.909 0-10.928 3.018-3.016 7.909-3.016 10.928 0l49.409 49.409c3.017 3.018 3.017 7.909 0 10.928-1.509 1.509-3.487 2.263-5.464 2.263z" fill="#2b4d66"/></g><g><path d="m359.707 119.639h-57.097c-4.268 0-7.726-3.459-7.726-7.726 0-4.268 3.459-7.726 7.726-7.726h57.097c4.268 0 7.726 3.459 7.726 7.726 0 4.268-3.459 7.726-7.726 7.726z" fill="#e27d47"/></g><g><path d="m390.612 150.569h-88.002c-4.268 0-7.726-3.459-7.726-7.726 0-4.268 3.459-7.726 7.726-7.726h88.002c4.268 0 7.726 3.459 7.726 7.726.001 4.267-3.458 7.726-7.726 7.726z" fill="#e27d47"/></g></g></svg>