<svg id="Layer_5" enable-background="new 0 0 64 64" height="512" viewBox="0 0 64 64" width="512" xmlns="http://www.w3.org/2000/svg" xmlns:xlink="http://www.w3.org/1999/xlink"><linearGradient id="SVGID_1_" gradientUnits="userSpaceOnUse" x1="32" x2="32" y1="63" y2="1"><stop offset="0" stop-color="#9f2fff"/><stop offset="1" stop-color="#0bb1d3"/></linearGradient><path d="m58 25h-28c-2.757 0-5 2.243-5 5v23.636c-.093.073-.19.141-.274.225l-1.14 1.139h-.586v-.716c0-5.608-2.185-10.882-6.15-14.849l-.85-.85v-1.625c1.021-.095 1.973-.518 2.707-1.253.834-.834 1.293-1.942 1.293-3.121v-1.865l3-1v-.721c0-3.068-1.034-5.751-1.973-7.565 1.208-1.098 1.973-2.677 1.973-4.435 0-.702-.127-1.373-.35-2h2.85l2.101 2.8c.562.752 1.46 1.2 2.399 1.2 1.654 0 3-1.346 3-3v-1h1c1.654 0 3-1.346 3-3v-8c0-1.654-1.346-3-3-3h-14c-1.654 0-3 1.346-3 3v6.999h-5c-4.858 0-8.83 3.87-8.995 8.689l-.296.444c-1.118 1.679-1.709 3.631-1.709 5.647 0 2.975 1.296 5.791 3.555 7.727l3.445 2.953v2.63c-2.833.478-5 2.942-5 5.91v6c0 1.102.897 2 2 2l-.001 3.939c0 1.596.621 3.095 1.786 4.261 1.162 1.161 2.7 1.801 4.331 1.801h18.891c2.753 0 4.993-2.243 4.993-5.001 0-.352-.072-.685-.184-.999h2.184v4h-2v2h18v-2h-2v-4h7c2.757 0 5-2.243 5-5v-22c0-2.757-2.243-5-5-5zm-28 2h28c1.654 0 3 1.346 3 3v19h-7c0-4.207-2.616-7.809-6.304-9.283 1.4-1.1 2.304-2.803 2.304-4.717 0-3.309-2.691-6-6-6s-6 2.691-6 6c0 1.914.904 3.617 2.304 4.717-3.688 1.474-6.304 5.076-6.304 9.283h-7v-19c0-1.654 1.346-3 3-3zm10 8c0-2.206 1.794-4 4-4s4 1.794 4 4-1.794 4-4 4-4-1.794-4-4zm3 6.069c.328-.041.661-.069 1-.069s.672.028 1 .069v.931c0 .552-.448 1-1 1s-1-.448-1-1zm1 3.931c1.654 0 3-1.346 3-3v-.411c2.928 1.19 5 4.061 5 7.411h-16c0-3.35 2.072-6.221 5-7.411v.411c0 1.654 1.346 3 3 3zm-21 11.999v4.001h-2v-4.001zm-2-2.716v.716l-8 .001v-2.001c1.103 0 2-.897 2-2v-6c0-1.31-.427-2.52-1.142-3.508.473-.242.901-.565 1.267-.954l.311.311c3.587 3.59 5.564 8.361 5.564 13.435zm-.021-25.997-2.979.993v3.307c0 .645-.251 1.251-.707 1.707s-1.063.707-1.707.707l-3.586-.001v2l2 .001v1.708c-.389.655-1.042 1.1-1.789 1.231-.661-.421-1.409-.714-2.211-.85v-7.261c0-.801-.313-1.555-.878-2.121l-.829-.829c-.187-.187-.293-.444-.293-.707v-.172c0-.552.448-1 1-1h1v-4c0-.774.453-1.46 1.123-1.79 1.103 1.12 2.615 1.791 4.263 1.791h1.613c.83 0 1.621-.17 2.341-.476.733 1.455 1.501 3.478 1.639 5.762zm-1.979-24.286c0-.552.448-1 1-1h14c.552 0 1 .448 1 1v8c0 .552-.448 1-1 1h-3v3c0 .552-.448 1-1 1-.313 0-.612-.149-.8-.399l-2.7-3.601h-5.04c-.664-.739-1.506-1.312-2.46-1.651zm-13.145 27.987c-1.814-1.554-2.855-3.818-2.855-6.209 0-1.62.475-3.188 1.373-4.536l.627-.94v-.303c0-3.859 3.141-7 7-7h5c2.206 0 4 1.795 4 4.001s-1.795 4-4.001 4h-1.613c-1.646 0-3.104-.986-3.714-2.514l-.743-1.857-1.857.742.743 1.857c.046.115.108.218.161.328-1.192.704-1.976 2-1.976 3.443v2.171c-1.164.413-2 1.525-2 2.829v.172c0 .801.312 1.555.878 2.121l.829.829c.187.187.293.444.293.707v1.998zm-.855 13.012c0-2.206 1.794-4 4-4s4 1.794 4 4v6l-8 .002zm3.162 14.748c-.75-.75-1.163-1.748-1.163-2.809l.001-3.939h4v2.266c-.616.278-1.131.761-1.447 1.393l-.447.895 1.789.895.447-.895c.17-.341.512-.553.893-.553l6.765-.001v4.001h-7.884c-1.096 0-2.133-.432-2.954-1.253zm24.838-1.748c0 1.654-1.343 3.001-2.993 3.001h-5.007v-4.587l1.141-1.14c.425-.429 1.229-.298 1.5.244l.741 1.481h2.68v.002h.943c.549.003.995.449.995.999zm16 3.001h-10v-4h10zm9-6h-25.99c-.003 0-.006-.001-.01-.001h-2.382l-.188-.376c-.471-.942-1.391-1.541-2.43-1.61v-2.013h34v1c0 1.654-1.346 3-3 3zm-10-32c.939 0 1.837-.448 2.399-1.2l2.101-2.8h5.5c1.654 0 3-1.346 3-3v-8c0-1.654-1.346-3-3-3h-14c-1.654 0-3 1.346-3 3v8c0 1.654 1.346 3 3 3h1v1c0 1.654 1.346 3 3 3zm-4-6c-.552 0-1-.448-1-1v-8c0-.552.448-1 1-1h14c.552 0 1 .448 1 1v8c0 .552-.448 1-1 1h-6.5l-2.7 3.601c-.188.25-.487.399-.8.399-.552 0-1-.448-1-1v-3zm13-6h-12v-2h12zm0 4h-12v-2h12zm-24-8h-12v-2h12zm0 4h-12v-2h12z" fill="url(#SVGID_1_)"/></svg>