<svg id="Capa_1" enable-background="new 0 0 512 512" height="512" viewBox="0 0 512 512" width="512" xmlns="http://www.w3.org/2000/svg"><g id="XMLID_1486_"><g id="XMLID_613_"><g id="XMLID_614_"><path id="XMLID_628_" d="m294.439 360.598c1.662-3.867 2.586-8.124 2.586-12.593 0-17.647-14.357-32.005-32.005-32.005h-13.624-32.247l15.282-25.708c4.498-7.566 5.642-16.745 3.14-25.184-2.503-8.438-8.467-15.509-16.36-19.398-8.884-4.378-19.463-4.32-28.299.152-25.319 12.819-48.359 30.342-67.604 51.26-1.712-3.054-4.975-5.122-8.725-5.122h-88c-5.522 0-10 4.478-10 10v55c0 5.522 4.478 10 10 10s10-4.478 10-10v-45h68v180h-68v-45c0-5.522-4.478-10-10-10s-10 4.478-10 10v55c0 5.522 4.478 10 10 10h88c5.522 0 10-4.478 10-10v-.359c11.894 6.689 25.442 10.359 39.2 10.359h92.3c17.637 0 31.984-14.349 31.984-31.985 0-4.237-.835-8.28-2.338-11.984h.623c17.648 0 32.006-14.357 32.006-32.005 0-8.519-3.352-16.264-8.798-22.005 5.446-5.741 8.798-13.487 8.798-22.006-.001-15.566-11.173-28.566-25.919-31.417zm-6.088 87.432h-65.251c-5.522 0-10 4.478-10 10s4.478 10 10 10h34.981c6.608 0 11.984 5.376 11.984 11.984s-5.375 11.986-11.983 11.986h-92.3c-14.347 0-28.393-5.31-39.2-14.668v-150.578l.683-.896c19.768-25.934 45.592-47.425 74.682-62.152 3.253-1.648 7.148-1.67 10.423-.056 2.951 1.453 5.091 3.991 6.026 7.145.936 3.154.524 6.448-1.156 9.276l-24.265 40.819c-1.838 3.09-1.874 6.929-.097 10.054 1.778 3.126 5.097 5.056 8.692 5.056h63.449c6.619 0 12.005 5.386 12.005 12.005s-5.386 12.005-12.005 12.005h-41.919c-5.522 0-10 4.478-10 10s4.478 10 10 10h65.251c6.62 0 12.006 5.386 12.006 12.005 0 6.62-5.386 12.006-12.006 12.006h-65.251c-5.522 0-10 4.478-10 10s4.478 10 10 10h65.251c6.62 0 12.006 5.386 12.006 12.005s-5.385 12.004-12.006 12.004z"/><path id="XMLID_625_" d="m345.642 123.736-42.905-6.233-19.188-38.88c-1.685-3.413-5.161-5.574-8.968-5.574s-7.283 2.161-8.968 5.574l-19.188 38.88-42.905 6.233c-3.768.548-6.896 3.187-8.073 6.807-1.176 3.62-.195 7.594 2.53 10.251l31.047 30.263-7.329 42.732c-.644 3.752.899 7.543 3.979 9.78s7.163 2.531 10.531.762l38.376-20.176 38.376 20.176c1.463.77 3.061 1.148 4.652 1.148 2.073 0 4.137-.645 5.879-1.91 3.079-2.237 4.622-6.028 3.979-9.78l-7.329-42.732 31.047-30.263c2.726-2.657 3.706-6.631 2.53-10.251s-4.305-6.259-8.073-6.807zm-43.229 36.668c-2.356 2.298-3.432 5.607-2.876 8.852l4.793 27.943-25.095-13.193c-1.456-.766-3.055-1.148-4.653-1.148s-3.197.383-4.653 1.148l-25.095 13.193 4.793-27.943c.556-3.244-.52-6.554-2.876-8.852l-20.302-19.789 28.056-4.076c3.258-.474 6.073-2.52 7.53-5.471l12.547-25.424 12.547 25.424c1.457 2.951 4.272 4.997 7.53 5.471l28.056 4.076z"/><path id="XMLID_622_" d="m492.929 147.614c-1.177-3.62-4.306-6.259-8.073-6.807l-32.871-4.775-14.7-29.788c-1.685-3.413-5.161-5.574-8.968-5.574s-7.283 2.161-8.968 5.574l-14.7 29.788-32.871 4.775c-3.768.548-6.896 3.187-8.073 6.807-1.176 3.62-.195 7.594 2.53 10.251l23.786 23.186-5.615 32.738c-.644 3.752.899 7.543 3.979 9.78 3.08 2.239 7.163 2.531 10.531.762l29.401-15.457 29.401 15.457c1.463.769 3.061 1.148 4.652 1.148 2.073 0 4.137-.645 5.879-1.91 3.079-2.237 4.622-6.028 3.979-9.78l-5.615-32.738 23.786-23.186c2.725-2.657 3.705-6.631 2.53-10.251zm-44.042 22.784c-2.356 2.298-3.432 5.607-2.876 8.852l3.079 17.949-16.12-8.475c-1.457-.766-3.055-1.148-4.653-1.148s-3.196.383-4.653 1.148l-16.12 8.475 3.079-17.949c.556-3.244-.52-6.554-2.876-8.852l-13.042-12.712 18.022-2.618c3.258-.474 6.073-2.52 7.53-5.471l8.06-16.332 8.06 16.332c1.457 2.951 4.272 4.997 7.53 5.471l18.022 2.618z"/><path id="XMLID_619_" d="m82.552 181.051-5.615 32.738c-.644 3.752.899 7.543 3.979 9.78 3.08 2.239 7.162 2.531 10.531.762l29.401-15.457 29.401 15.457c1.463.769 3.061 1.148 4.652 1.148 2.073 0 4.137-.645 5.879-1.91 3.079-2.237 4.622-6.028 3.979-9.78l-5.615-32.738 23.786-23.186c2.726-2.657 3.706-6.631 2.53-10.251-1.177-3.62-4.306-6.259-8.073-6.807l-32.871-4.775-14.7-29.788c-1.685-3.413-5.161-5.574-8.968-5.574s-7.283 2.161-8.968 5.574l-14.7 29.788-32.871 4.775c-3.768.548-6.896 3.187-8.073 6.807-1.176 3.62-.195 7.594 2.53 10.251zm22.706-25.983c3.258-.474 6.073-2.52 7.53-5.471l8.06-16.332 8.06 16.332c1.457 2.951 4.272 4.997 7.53 5.471l18.022 2.618-13.042 12.712c-2.356 2.298-3.432 5.607-2.876 8.852l3.079 17.949-16.12-8.475c-1.457-.766-3.055-1.148-4.653-1.148s-3.196.383-4.653 1.148l-16.12 8.475 3.079-17.949c.556-3.244-.52-6.554-2.876-8.852l-13.042-12.712z"/><path id="XMLID_618_" d="m274.476 49.519c5.522 0 10-4.478 10-10v-29.519c0-5.522-4.478-10-10-10s-10 4.478-10 10v29.519c0 5.522 4.478 10 10 10z"/><path id="XMLID_617_" d="m200.711 71.071c1.953 1.952 4.512 2.929 7.071 2.929s5.118-.977 7.071-2.929c3.905-3.905 3.905-10.237 0-14.143l-17.322-17.322c-3.906-3.904-10.236-3.904-14.143 0-3.905 3.905-3.905 10.237 0 14.143z"/><path id="XMLID_616_" d="m341.382 74c2.559 0 5.118-.977 7.071-2.929l17.323-17.322c3.905-3.905 3.905-10.236 0-14.143-3.905-3.903-10.235-3.904-14.143 0l-17.323 17.323c-3.905 3.905-3.905 10.236 0 14.143 1.954 1.951 4.512 2.928 7.072 2.928z"/><path id="XMLID_615_" d="m35.656 409.069c1.86-1.859 2.93-4.439 2.93-7.069s-1.069-5.21-2.93-7.07c-1.87-1.86-4.44-2.93-7.07-2.93s-5.21 1.069-7.08 2.93c-1.859 1.86-2.92 4.44-2.92 7.07s1.061 5.21 2.92 7.069c1.87 1.86 4.44 2.931 7.08 2.931 2.63 0 5.21-1.07 7.07-2.931z"/></g></g></g></svg>