<svg id="Capa_1" enable-background="new 0 0 512.254 512.254" height="512" viewBox="0 0 512.254 512.254" width="512" xmlns="http://www.w3.org/2000/svg"><g id="XMLID_1318_"><g fill="#ffd89e"><circle id="XMLID_1301_" cx="197" cy="478.127" r="24"/><circle id="XMLID_1300_" cx="42" cy="416.127" r="32"/><circle id="XMLID_1283_" cx="470.254" cy="244.127" r="32"/><circle id="XMLID_1281_" cx="75.168" cy="252.127" r="32"/><circle id="XMLID_1280_" cx="340.667" cy="206.03" r="24"/><circle id="XMLID_1279_" cx="182.588" cy="158.03" r="24"/><circle id="XMLID_1278_" cx="429.086" cy="416.127" r="32"/></g><circle id="XMLID_913_" cx="256.127" cy="330.127" fill="#ffcb7c" r="44"/><g id="XMLID_361_"><path id="XMLID_364_" d="m42 374.127c-23.159 0-42 18.841-42 42s18.841 42 42 42 42-18.841 42-42-18.841-42-42-42zm0 64c-12.131 0-22-9.869-22-22s9.869-22 22-22 22 9.869 22 22-9.869 22-22 22z"/><path id="XMLID_367_" d="m470.254 286.127c23.159 0 42-18.841 42-42s-18.841-42-42-42-42 18.841-42 42c0 2.01.151 3.986.425 5.922l-127.065 51.033c-2.124-3.314-4.587-6.39-7.361-9.158l36.382-53.406c3.173.982 6.542 1.512 10.032 1.512 18.748 0 34-15.252 34-34s-15.252-34-34-34-34 15.252-34 34c0 8.016 2.795 15.388 7.453 21.207l-36.388 53.415c-3.674-1.611-7.561-2.82-11.605-3.581v-266.944c0-5.523-4.478-10-10-10s-10 4.477-10 10v266.943c-.068.013-.136.023-.204.036l-41.103-93.386c7.2-6.239 11.768-15.439 11.768-25.691 0-18.748-15.252-34-34-34s-34 15.252-34 34 15.252 34 34 34c1.332 0 2.643-.085 3.936-.235l40.797 92.692c-6.32 4.003-11.764 9.27-15.951 15.459l-94.789-40.858c.379-2.266.587-4.589.587-6.961 0-23.159-18.841-42-42-42s-42 18.841-42 42 18.841 42 42 42c13.656 0 25.806-6.555 33.482-16.679l94.796 40.861c-.854 3.806-1.319 7.758-1.319 11.818 0 3.592.36 7.1 1.032 10.497l-51.839 20.82c-5.125 2.059-7.611 7.882-5.553 13.007 1.567 3.903 5.318 6.275 9.282 6.275 1.24 0 2.503-.232 3.724-.723l51.866-20.831c4.245 6.625 9.892 12.262 16.525 16.495l-27.398 68.581c-.914-.074-1.834-.122-2.766-.122-18.748 0-34 15.252-34 34s15.252 34 34 34 34-15.252 34-34c0-10.674-4.948-20.209-12.666-26.447l27.393-68.568c3.367.66 6.842 1.015 10.4 1.015 17.552 0 33.169-8.422 43.039-21.432l88.949 44.228c-.666 2.964-1.028 6.042-1.028 9.204 0 23.159 18.841 42 42 42s42-18.841 42-42-18.841-42-42-42c-12.836 0-24.338 5.794-32.048 14.897l-88.952-44.229c1.319-4.667 2.041-9.583 2.041-14.667 0-3.592-.36-7.1-1.032-10.497l127.058-51.03c7.63 10.604 20.068 17.528 34.1 17.528zm-129.587-94.098c7.72 0 14 6.28 14 14s-6.28 14-14 14-14-6.28-14-14 6.28-14 14-14zm-172.079-34c0-7.72 6.28-14 14-14s14 6.28 14 14-6.28 14-14 14-14-6.28-14-14zm-93.42 116.098c-12.131 0-22-9.869-22-22s9.869-22 22-22 22 9.869 22 22-9.869 22-22 22zm121.832 218c-7.72 0-14-6.28-14-14s6.28-14 14-14 14 6.28 14 14-6.28 14-14 14zm232.086-98c12.131 0 22 9.869 22 22s-9.869 22-22 22-22-9.869-22-22 9.869-22 22-22zm-172.959-30c-18.748 0-34-15.252-34-34s15.252-34 34-34 34 15.252 34 34-15.252 34-34 34zm214.127-142c12.131 0 22 9.869 22 22s-9.869 22-22 22-22-9.869-22-22 9.869-22 22-22z"/><path id="XMLID_374_" d="m113.52 377.537c-2.63 0-5.21 1.07-7.069 2.93-1.87 1.86-2.931 4.43-2.931 7.07 0 2.63 1.061 5.21 2.931 7.07 1.859 1.86 4.43 2.93 7.069 2.93 2.63 0 5.21-1.07 7.07-2.93s2.93-4.44 2.93-7.07c0-2.64-1.069-5.21-2.93-7.07s-4.441-2.93-7.07-2.93z"/></g></g></svg>