<svg id="Capa_1" enable-background="new 0 0 512 512" height="512" viewBox="0 0 512 512" width="512" xmlns="http://www.w3.org/2000/svg"><g><g><g><g><g><g><g><circle cx="256" cy="256" fill="#c45325" r="256"/></g></g></g></g></g></g><path d="m512 256c0-34.813-6.949-68.003-19.536-98.259l-95.572-95.572-281.784 369.529 70.503 70.503c22.364 6.382 45.977 9.799 70.389 9.799 141.385 0 256-114.615 256-256z" fill="#963b11"/><g><path d="m147.391 62.169h249.501v369.529h-249.501z" fill="#ffce00"/></g><g><path d="m147.391 62.169h132.451v369.529h-132.451z" fill="#ffce00"/></g><g><path d="m115.108 62.169h38.118v369.529h-38.118z" fill="#fdba12"/></g><g><path d="m272.142 62.169h124.75v369.529h-124.75z" fill="#fdba12"/></g><g><path d="m219.422 198.775v-27.469l-10.696 27.469h-4.811l-10.634-27.469v27.469h-10.886v-42.217h15.127l8.798 22.912 8.861-22.912h15.127v42.217z" fill="#636978"/><path d="m237.902 198.775v-42.217h30.95v9.494h-20.063v6.583h19.62v9.494h-19.62v7.152h20.063v9.494z" fill="#636978"/><g fill="#555a66"><path d="m303.916 198.775-17.85-24.431v24.431h-10.886v-42.217h11.203l17.089 23.229v-23.229h10.949v42.217z"/><path d="m322.016 181.685v-25.127h11.076v24.748c0 5 2.975 8.608 8.924 8.608 5.823 0 8.861-3.608 8.861-8.608v-24.748h11.014v25.064c0 10.507-6.393 17.912-19.875 17.912-13.608 0-20-7.468-20-17.849z"/></g></g><g><path d="m166.097 103.707h113.746v30.299h-113.746z" fill="#fff"/></g><g><path d="m166.097 224.299h113.746v30.299h-113.746z" fill="#fff"/></g><g><path d="m272.142 415.612-63.018-111.254c34.804-34.804 67.148-47.418 101.951-12.615z" fill="#fff"/></g><g><path d="m335.159 304.358c-17.402-17.402-40.21-26.103-63.018-26.103v137.357l35.873-63.332 4.162-16.284 10.471-9.549z" fill="#e9edf5"/></g><g><ellipse cx="250" cy="319.207" fill="#ff636e" rx="15.401" ry="15.401" transform="matrix(.924 -.383 .383 .924 -103.125 119.969)"/></g><g><path d="m311.757 321.936c-8.506 0-15.401 6.895-15.401 15.401 0 7.215 4.962 13.271 11.659 14.943l14.633-25.833c-2.788-2.787-6.638-4.511-10.891-4.511z" fill="#ff475a"/></g><g><ellipse cx="272.142" cy="367.761" fill="#ff636e" rx="15.401" ry="15.401" transform="matrix(.707 -.707 .707 .707 -180.338 300.148)"/></g><g fill="#e9edf5"><path d="m272.142 103.707h106.045v30.299h-106.045z"/><path d="m272.142 224.299h106.045v30.298h-106.045z"/></g><g><path d="m287.543 367.761c0-8.506-6.896-15.401-15.401-15.401v30.802c8.505 0 15.401-6.895 15.401-15.401z" fill="#ff475a"/></g><g><path d="m335.159 319.207-7.425-7.424c-30.654-30.654-80.531-30.654-111.186 0l-7.425 7.425-14.85-14.849 7.425-7.425c38.843-38.842 102.042-38.841 140.885 0l7.425 7.425z" fill="#fdba12"/></g><g><path d="m342.584 296.933c-19.421-19.421-44.932-29.131-70.442-29.132v20.99c20.133 0 40.266 7.664 55.593 22.99l7.425 7.425 14.85-14.849z" fill="#ffa300"/></g></g></svg>