<?xml version="1.0" encoding="iso-8859-1"?>
<!-- Generator: Adobe Illustrator 19.0.0, SVG Export Plug-In . SVG Version: 6.00 Build 0)  -->
<svg version="1.1" id="Capa_1" xmlns="http://www.w3.org/2000/svg" xmlns:xlink="http://www.w3.org/1999/xlink" x="0px" y="0px"
	 viewBox="0 0 512 512" style="enable-background:new 0 0 512 512;" xml:space="preserve">
<g>
	<g>
		<path d="M232.955,24.047h-1.002c-4.151,0-7.515,3.364-7.515,7.515s3.364,7.515,7.515,7.515h1.002c4.151,0,7.515-3.364,7.515-7.515
			S237.106,24.047,232.955,24.047z"/>
	</g>
</g>
<g>
	<g>
		<path d="M273.033,24.047h-1.002c-4.151,0-7.515,3.364-7.515,7.515s3.364,7.515,7.515,7.515h1.002c4.151,0,7.515-3.364,7.515-7.515
			S277.184,24.047,273.033,24.047z"/>
	</g>
</g>
<g>
	<g>
		<path d="M192.877,24.047h-1.002c-4.151,0-7.515,3.364-7.515,7.515s3.364,7.515,7.515,7.515h1.002c4.151,0,7.515-3.364,7.515-7.515
			S197.028,24.047,192.877,24.047z"/>
	</g>
</g>
<g>
	<g>
		<path d="M247.984,464.908h-32.063c-4.151,0-7.515,3.364-7.515,7.515c0,4.151,3.364,7.515,7.515,7.515h32.063
			c4.151,0,7.515-3.364,7.515-7.515C255.499,468.272,252.135,464.908,247.984,464.908z"/>
	</g>
</g>
<g>
	<g>
		<path d="M424.329,167.341c4.151,0,7.515-3.364,7.515-7.515v-40.092c0-17.403-14.159-31.562-31.562-31.562H383.75V39.577
			C383.75,17.755,365.995,0,344.172,0H119.734C97.911,0,80.157,17.755,80.157,39.577v432.845c0,21.823,17.755,39.577,39.577,39.577
			h224.438c21.823,0,39.577-17.755,39.577-39.577V327.64h16.532c17.403,0,31.562-14.159,31.562-31.562v-99.527
			c0-4.151-3.364-7.515-7.515-7.515c-4.151,0-7.515,3.364-7.515,7.515v99.527c0,9.116-7.417,16.532-16.532,16.532H239.969
			c-1.794,0-3.528,0.642-4.891,1.81l-43.704,37.46V119.734c0-9.116,7.417-16.532,16.532-16.532h192.376
			c9.116,0,16.532,7.417,16.532,16.532v40.092C416.814,163.976,420.178,167.341,424.329,167.341z M368.72,472.423
			c0,13.536-11.011,24.548-24.548,24.548H119.734c-13.536,0-24.548-11.011-24.548-24.548v-24.548H368.72V472.423z M368.72,88.172
			H207.906c-17.403,0-31.562,14.159-31.562,31.562v248.485c0,6.269,7.618,9.811,12.405,5.705l53.998-46.284H368.72v105.206H95.186
			V63.123H368.72V88.172z M368.72,48.094H95.186v-8.517c0-13.536,11.011-24.548,24.548-24.548h224.438
			c13.536,0,24.548,11.011,24.548,24.548V48.094z"/>
	</g>
</g>
<g>
	<g>
		<path d="M364.074,208.593l34.007-34.007c2.935-2.936,2.935-7.693,0-10.628c-2.936-2.934-7.693-2.934-10.628,0l-23.025,23.025
			l-6.375-6.375l23.025-23.025c2.935-2.936,2.935-7.693,0-10.628c-2.936-2.934-7.693-2.934-10.628,0l-23.025,23.025l-6.375-6.375
			l23.025-23.027c2.935-2.935,2.935-7.692,0-10.627c-2.935-2.933-7.692-2.936-10.628,0.001l-28.321,28.322
			c-0.006,0.006-0.013,0.011-0.019,0.017c-0.006,0.006-0.011,0.013-0.017,0.019l-5.649,5.65c-6.126,6.124-8.278,14.967-6.011,23.014
			l-8.496,8.496l-16.523-15.343c0.564-3.29,0.614-6.778,0.103-10.351c-1.299-9.093-5.979-18.064-13.177-25.262
			c-15.43-15.432-37.995-17.973-50.302-5.668c-12.306,12.306-9.763,34.872,5.668,50.303c8.85,8.849,20.048,13.46,30.312,13.459
			c1.789,0,3.548-0.146,5.262-0.429l15.379,16.563l-34.485,34.485c-7.618,7.619-7.618,20.014,0,27.632
			c7.52,7.518,20.11,7.519,27.631,0l33.463-33.463l29.933,32.236c7.366,7.82,20.318,7.707,27.825,0.199
			c7.618-7.619,7.617-20.014,0-27.631c-0.065-0.065-0.133-0.129-0.2-0.192l-32.236-29.933l7.472-7.473
			C349.107,216.868,357.947,214.717,364.074,208.593z M270.377,184.185c-6.336,6.338-19.639,3.742-29.049-5.667
			c-9.408-9.409-12.003-22.711-5.667-29.049c2.352-2.352,5.661-3.473,9.375-3.473c6.296,0,13.755,3.222,19.672,9.14
			c0,0.001,0,0.001,0,0.001c4.842,4.842,8.096,10.951,8.925,16.761C274.056,174.849,274.194,180.368,270.377,184.185z
			 M280.443,195.345c0.187-0.176,0.379-0.349,0.562-0.532c0.182-0.182,0.353-0.376,0.529-0.564l12.764,11.853l-2.005,2.005
			L280.443,195.345z M355.47,262.904c1.666,1.744,1.632,4.595-0.073,6.3s-4.556,1.74-6.301,0.074l-30.195-32.518l4.052-4.051
			L355.47,262.904z M333.979,200.428l-69.803,69.804c-1.657,1.66-4.41,1.745-6.168,0.195c-1.925-1.696-2.023-4.756-0.207-6.571
			l69.803-69.805c2.423-2.424,2.901-6.18,1.158-9.132c-1.974-3.345-1.438-7.594,1.305-10.333l0.354-0.354l23.379,23.379
			l-0.355,0.355c-2.737,2.74-6.988,3.278-10.333,1.304C340.159,197.531,336.403,198.006,333.979,200.428z"/>
	</g>
</g>
<g>
</g>
<g>
</g>
<g>
</g>
<g>
</g>
<g>
</g>
<g>
</g>
<g>
</g>
<g>
</g>
<g>
</g>
<g>
</g>
<g>
</g>
<g>
</g>
<g>
</g>
<g>
</g>
<g>
</g>
</svg>
